<svg width="148" height="147" viewBox="0 0 148 147" fill="none" xmlns="http://www.w3.org/2000/svg">
<path d="M113.75 69.5833V60.75H104.917V51.9167C104.91 49.5761 103.977 47.3333 102.322 45.6783C100.667 44.0232 98.4239 43.0903 96.0833 43.0833H87.25V34.25H78.4167V43.0833H69.5833V34.25H60.75V43.0833H51.9167C49.5761 43.0903 47.3333 44.0232 45.6783 45.6783C44.0232 47.3333 43.0903 49.5761 43.0833 51.9167V60.75H34.25V69.5833H43.0833V78.4167H34.25V87.25H43.0833V96.0833C43.0903 98.4239 44.0232 100.667 45.6783 102.322C47.3333 103.977 49.5761 104.91 51.9167 104.917H60.75V113.75H69.5833V104.917H78.4167V113.75H87.25V104.917H96.0833C98.4239 104.91 100.667 103.977 102.322 102.322C103.977 100.667 104.91 98.4239 104.917 96.0833V87.25H113.75V78.4167H104.917V69.5833H113.75ZM96.0833 96.0833H51.9167V51.9167H96.0833V96.0833Z" fill="#C8C6C3"/>
<path d="M71.1777 56.3334H65.2373L56.3598 91.6667H60.8957L62.9451 83.3855H73.1741L75.1704 91.6667H79.8609L71.1777 56.3334ZM63.5413 79.8477L68.0375 60.5292H68.2406L72.5822 79.8477H63.5413ZM83.911 56.3334H88.3276V91.6667H83.911V56.3334Z" fill="#C8C6C3"/>
<rect x="0.5" y="0.5" width="147" height="146" rx="20.5" stroke="#C8C6C3"/>
</svg>
