<svg width="1500" height="231" viewBox="0 0 1500 231" fill="none" xmlns="http://www.w3.org/2000/svg">
<path d="M19.4595 227.853H0.810811C0.27027 227.853 0 227.328 0 226.279L0.324324 4.87807C0.324324 4.03883 0.540541 3.61921 0.972973 3.61921H54.1622C54.7027 3.61921 54.973 4.03883 54.973 4.87807V41.2275C54.973 42.0668 54.7568 42.4864 54.3243 42.4864H20.2703V92.5259H54.3243C54.7568 92.5259 54.973 93.0504 54.973 94.0995L55.1351 130.606C55.1351 131.446 54.8649 131.865 54.3243 131.865H20.2703V226.279C20.2703 227.328 20 227.853 19.4595 227.853Z" fill="#1C1C1C"/>
<path d="M89.3513 227.853H70.5405C70.1081 227.853 69.8919 227.328 69.8919 226.279L70.2162 4.87807C70.2162 4.03883 70.4324 3.61921 70.8649 3.61921H104.432C110.432 3.61921 115.946 6.45163 120.973 12.1165C126 17.7813 130 25.3869 132.973 34.9332C136 44.4796 137.514 55.2847 137.514 67.3488C137.514 75.2166 136.892 82.3501 135.649 88.7493C134.405 95.1485 132.946 100.551 131.27 104.957C129.649 109.363 128.162 112.615 126.811 114.713C132.811 127.616 135.811 142.775 135.811 160.189L135.973 226.279C135.973 227.328 135.703 227.853 135.162 227.853H116.351C115.919 227.853 115.703 227.538 115.703 226.909V160.189C115.703 152.426 114.297 145.713 111.486 140.048C108.676 134.383 105.216 131.55 101.108 131.55H90.1622L90 226.279C90 227.328 89.7838 227.853 89.3513 227.853ZM104.432 42.1717H90.1622V92.8406H104.432C107.838 92.8406 110.865 90.3753 113.514 85.4448C116.216 80.5143 117.568 74.4823 117.568 67.3488C117.568 60.53 116.27 54.6553 113.676 49.7248C111.081 44.6894 108 42.1717 104.432 42.1717Z" fill="#1C1C1C"/>
<path d="M177.324 231C171.432 231 166 228.063 161.027 222.188C156.108 216.313 152.135 208.498 149.108 198.742C146.135 188.881 144.649 178.076 144.649 166.326L144.811 64.2016C144.811 52.2425 146.297 41.4898 149.27 31.9435C152.189 22.2922 156.135 14.5817 161.108 8.81199C166.081 2.93733 171.486 0 177.324 0C183.378 0 188.811 2.88488 193.622 8.65463C198.486 14.4244 202.378 22.1873 205.297 31.9435C208.27 41.5947 209.757 52.3474 209.757 64.2016L209.919 166.326C209.919 178.076 208.459 188.828 205.541 198.584C202.568 208.446 198.622 216.313 193.703 222.188C188.784 228.063 183.324 231 177.324 231ZM177.324 192.133C180.676 192.133 183.595 189.51 186.081 184.265C188.568 178.915 189.811 172.935 189.811 166.326L189.649 64.2016C189.649 57.0681 188.486 51.0361 186.162 46.1056C183.838 41.1751 180.892 38.7098 177.324 38.7098C173.919 38.7098 171 41.1226 168.568 45.9482C166.135 50.7738 164.919 56.8583 164.919 64.2016V166.326C164.919 173.355 166.135 179.439 168.568 184.58C171 189.615 173.919 192.133 177.324 192.133Z" fill="#1C1C1C"/>
<path d="M240.568 227.853H223.946C223.081 227.853 222.649 227.119 222.649 225.65L222.486 6.13692C222.486 4.45845 222.919 3.61921 223.784 3.61921H238.784L266.838 130.606L266.027 6.13692C266.027 4.45845 266.514 3.61921 267.486 3.61921H283.946C284.595 3.61921 284.919 4.45845 284.919 6.13692L285.081 225.965C285.081 227.223 284.811 227.853 284.27 227.853H269.676L240.892 109.206L242.108 225.335C242.108 227.014 241.595 227.853 240.568 227.853Z" fill="#1C1C1C"/>
<path d="M334.946 227.853H316.216C315.73 227.853 315.486 227.328 315.486 226.279V42.4864H293.919C293.378 42.4864 293.108 41.9619 293.108 40.9128L293.27 4.87807C293.27 4.03883 293.486 3.61921 293.919 3.61921H357C357.595 3.61921 357.892 4.03883 357.892 4.87807V40.9128C357.892 41.9619 357.676 42.4864 357.243 42.4864H335.432L335.595 226.279C335.595 227.328 335.378 227.853 334.946 227.853Z" fill="#1C1C1C"/>
<path d="M420.324 227.853H366.649C366.216 227.853 366 227.328 366 226.279L366.162 4.87807C366.162 4.03883 366.378 3.61921 366.811 3.61921H420.162C420.595 3.61921 420.811 4.14373 420.811 5.19278V41.2275C420.811 42.0668 420.595 42.4864 420.162 42.4864H386.108V92.8406H420.162C420.595 92.8406 420.811 93.2602 420.811 94.0995L420.973 130.606C420.973 131.446 420.757 131.865 420.324 131.865H386.108V188.199H420.324C420.757 188.199 420.973 188.723 420.973 189.772V226.594C420.973 227.433 420.757 227.853 420.324 227.853Z" fill="#1C1C1C"/>
<path d="M453.811 227.853H437.189C436.324 227.853 435.892 227.119 435.892 225.65L435.73 6.13692C435.73 4.45845 436.162 3.61921 437.027 3.61921H452.027L480.081 130.606L479.27 6.13692C479.27 4.45845 479.757 3.61921 480.73 3.61921H497.189C497.838 3.61921 498.162 4.45845 498.162 6.13692L498.324 225.965C498.324 227.223 498.054 227.853 497.514 227.853H482.919L454.135 109.206L455.351 225.335C455.351 227.014 454.838 227.853 453.811 227.853Z" fill="#1C1C1C"/>
<path d="M543.324 227.538L513.568 227.853C513.027 227.853 512.757 227.328 512.757 226.279L513.081 4.87807C513.081 4.03883 513.297 3.61921 513.73 3.61921L544.784 3.3045C550.946 2.98978 556.514 5.7173 561.486 11.4871C566.514 17.2568 570.514 25.0722 573.486 34.9332C576.514 44.6894 578.027 55.4946 578.027 67.3488V159.875C578.027 172.253 576.486 183.583 573.405 193.864C570.27 204.04 566.108 212.17 560.919 218.254C555.73 224.234 549.865 227.328 543.324 227.538ZM544.784 41.8569L533.189 42.1717L533.027 188.199H543.324C547.432 188.199 550.892 185.419 553.703 179.859C556.514 174.299 557.919 167.638 557.919 159.875V67.0341C557.919 60.2153 556.622 54.2881 554.027 49.2527C551.432 44.1124 548.351 41.6471 544.784 41.8569Z" fill="#1C1C1C"/>
<path d="M692.027 227.853L662.514 228.168C656.027 228.168 650.297 225.02 645.324 218.726C640.405 212.537 636.541 204.721 633.73 195.28C630.973 185.839 629.595 176.397 629.595 166.956V145.713C629.595 138.369 630.486 131.288 632.27 124.469C634.054 117.546 636.378 111.409 639.243 106.059C636.919 101.128 635.081 95.0961 633.73 87.9625C632.432 80.7241 631.784 72.6989 631.784 63.8869C631.784 52.767 633.135 42.5913 635.838 33.3597C638.541 24.233 642.189 16.9946 646.784 11.6444C651.378 6.29428 656.486 3.61921 662.108 3.61921H684.568C685.324 3.61921 685.703 4.35354 685.703 5.82221V39.9687C685.703 41.2275 685.378 41.8569 684.73 41.8569H662.108C659.351 41.8569 656.946 44.0075 654.892 48.3086C652.838 52.6097 651.811 57.8025 651.811 63.8869C651.811 71.1253 652.676 76.7902 654.405 80.8815C656.135 84.9728 658.703 87.0184 662.108 87.0184H707.27C707.865 87.0184 708.162 87.5429 708.162 88.592V124.469C708.162 125.309 707.946 125.728 707.514 125.728H692.838L692.676 226.594C692.676 227.433 692.459 227.853 692.027 227.853ZM662.514 189.458L673.297 189.143L673.459 125.728H661.946C659.622 125.728 657.514 126.83 655.622 129.033C651.459 133.963 649.378 139.523 649.378 145.713V166.956C649.378 170.103 649.919 173.46 651 177.027C652.081 180.593 653.595 183.583 655.541 185.996C657.486 188.304 659.811 189.458 662.514 189.458Z" fill="#1C1C1C"/>
<path d="M790.459 231C784.622 231 779.216 228.063 774.243 222.188C769.27 216.313 765.297 208.446 762.324 198.584C759.405 188.619 757.946 177.761 757.946 166.012L758.27 4.87807C758.27 4.03883 758.486 3.61921 758.919 3.61921H777.568C778 3.61921 778.216 4.03883 778.216 4.87807V166.012C778.216 173.25 779.405 179.439 781.784 184.58C784.162 189.615 787.054 192.133 790.459 192.133C794.027 192.133 797 189.615 799.378 184.58C801.757 179.439 802.946 173.25 802.946 166.012V4.87807C802.946 4.03883 803.162 3.61921 803.595 3.61921H822.243C822.676 3.61921 822.892 4.03883 822.892 4.87807L823.216 166.012C823.216 177.866 821.757 188.776 818.838 198.742C815.865 208.603 811.919 216.471 807 222.345C802.081 228.115 796.568 231 790.459 231Z" fill="#1C1C1C"/>
<path d="M855.892 227.853H837.081C836.541 227.853 836.27 227.328 836.27 226.279L836.432 4.87807C836.432 4.03883 836.649 3.61921 837.081 3.61921H855.73C856.162 3.61921 856.378 4.03883 856.378 4.87807L856.541 226.279C856.541 227.328 856.324 227.853 855.892 227.853Z" fill="#1C1C1C"/>
<path d="M887.27 227.853H870.324C869.838 227.853 869.622 227.328 869.676 226.279L890.27 4.87807C890.378 4.03883 890.649 3.61921 891.081 3.61921H908.351C908.892 3.61921 909.108 4.03883 909 4.87807L888.081 226.279C888.027 227.328 887.757 227.853 887.27 227.853Z" fill="#1C1C1C"/>
<path d="M951.324 231C945.486 231 940.081 228.063 935.108 222.188C930.135 216.313 926.162 208.446 923.189 198.584C920.27 188.619 918.811 177.761 918.811 166.012L919.135 4.87807C919.135 4.03883 919.351 3.61921 919.784 3.61921H938.432C938.865 3.61921 939.081 4.03883 939.081 4.87807V166.012C939.081 173.25 940.27 179.439 942.649 184.58C945.027 189.615 947.919 192.133 951.324 192.133C954.892 192.133 957.865 189.615 960.243 184.58C962.622 179.439 963.811 173.25 963.811 166.012V4.87807C963.811 4.03883 964.027 3.61921 964.459 3.61921H983.108C983.541 3.61921 983.757 4.03883 983.757 4.87807L984.081 166.012C984.081 177.866 982.622 188.776 979.703 198.742C976.73 208.603 972.784 216.471 967.865 222.345C962.946 228.115 957.432 231 951.324 231Z" fill="#1C1C1C"/>
<path d="M1010.68 227.853H992.027C991.649 227.853 991.486 227.328 991.541 226.279L1010.51 111.251L991.865 4.87807C991.757 4.03883 991.919 3.61921 992.351 3.61921H1011C1011.54 3.61921 1011.86 4.03883 1011.97 4.87807L1023.08 81.5109L1034.35 4.87807C1034.46 4.03883 1034.81 3.61921 1035.41 3.61921H1053.81C1054.24 3.61921 1054.41 4.03883 1054.3 4.87807L1035.73 110.937L1054.46 226.279C1054.68 227.328 1054.51 227.853 1053.97 227.853H1035.41C1034.92 227.853 1034.57 227.328 1034.35 226.279L1023.08 143.037L1011.65 226.279C1011.59 227.328 1011.27 227.853 1010.68 227.853Z" fill="#1C1C1C"/>
<path d="M1137.97 227.538L1108.22 227.853C1107.68 227.853 1107.41 227.328 1107.41 226.279L1107.73 4.87807C1107.73 4.03883 1107.95 3.61921 1108.38 3.61921L1139.43 3.3045C1145.59 2.98978 1151.16 5.7173 1156.14 11.4871C1161.16 17.2568 1165.16 25.0722 1168.14 34.9332C1171.16 44.6894 1172.68 55.4946 1172.68 67.3488V159.875C1172.68 172.253 1171.14 183.583 1168.05 193.864C1164.92 204.04 1160.76 212.17 1155.57 218.254C1150.38 224.234 1144.51 227.328 1137.97 227.538ZM1139.43 41.8569L1127.84 42.1717L1127.68 188.199H1137.97C1142.08 188.199 1145.54 185.419 1148.35 179.859C1151.16 174.299 1152.57 167.638 1152.57 159.875V67.0341C1152.57 60.2153 1151.27 54.2881 1148.68 49.2527C1146.08 44.1124 1143 41.6471 1139.43 41.8569Z" fill="#1C1C1C"/>
<path d="M1240.05 227.853H1186.38C1185.95 227.853 1185.73 227.328 1185.73 226.279L1185.89 4.87807C1185.89 4.03883 1186.11 3.61921 1186.54 3.61921H1239.89C1240.32 3.61921 1240.54 4.14373 1240.54 5.19278V41.2275C1240.54 42.0668 1240.32 42.4864 1239.89 42.4864H1205.84V92.8406H1239.89C1240.32 92.8406 1240.54 93.2602 1240.54 94.0995L1240.7 130.606C1240.7 131.446 1240.49 131.865 1240.05 131.865H1205.84V188.199H1240.05C1240.49 188.199 1240.7 188.723 1240.7 189.772V226.594C1240.7 227.433 1240.49 227.853 1240.05 227.853Z" fill="#1C1C1C"/>
<path d="M1283.68 231C1277.78 231 1272.35 228.063 1267.38 222.188C1262.46 216.313 1258.51 208.498 1255.54 198.742C1252.62 188.881 1251.16 178.076 1251.16 166.326V151.535C1251.16 150.381 1251.43 149.804 1251.97 149.804H1270.62C1271.05 149.804 1271.27 150.381 1271.27 151.535V166.326C1271.27 173.355 1272.49 179.439 1274.92 184.58C1277.35 189.615 1280.27 192.133 1283.68 192.133C1287.14 192.133 1290.08 189.563 1292.51 184.422C1294.95 179.177 1296.16 173.145 1296.16 166.326C1296.16 158.458 1293.51 151.587 1288.22 145.713C1287.35 144.663 1286.22 143.405 1284.81 141.936C1283.46 140.362 1281.84 138.579 1279.95 136.586C1278.05 134.593 1276.22 132.652 1274.43 130.764C1272.65 128.77 1270.92 126.882 1269.24 125.099C1263.19 118.175 1258.68 109.52 1255.7 99.1349C1252.78 88.6444 1251.32 76.8951 1251.32 63.8869C1251.32 51.9278 1252.84 41.1226 1255.86 31.4714C1258.89 21.9251 1262.84 14.3719 1267.7 8.81199C1272.62 3.14714 1277.95 0.314714 1283.68 0.314714C1289.57 0.314714 1294.97 3.14714 1299.89 8.81199C1304.81 14.5817 1308.73 22.2398 1311.65 31.7861C1314.62 41.3324 1316.11 52.0327 1316.11 63.8869V90.3229C1316.11 91.1621 1315.89 91.5817 1315.46 91.5817H1296.81C1296.38 91.5817 1296.16 91.1621 1296.16 90.3229L1296 63.8869C1296 56.3338 1294.78 50.1969 1292.35 45.4762C1289.92 40.7555 1287.03 38.3951 1283.68 38.3951C1280.27 38.3951 1277.35 40.9128 1274.92 45.9482C1272.49 50.9837 1271.27 56.9632 1271.27 63.8869C1271.27 70.9155 1272.03 76.7902 1273.54 81.5109C1275.11 86.2316 1277.95 90.7425 1282.05 95.0436C1282.49 95.4632 1283.49 96.5123 1285.05 98.1907C1286.62 99.8692 1288.35 101.757 1290.24 103.856C1292.19 105.849 1293.95 107.685 1295.51 109.363C1297.08 110.937 1298.03 111.881 1298.35 112.196C1303.86 118.175 1308.22 125.518 1311.41 134.225C1314.65 142.933 1316.27 153.633 1316.27 166.326C1316.27 178.6 1314.81 189.615 1311.89 199.371C1308.92 209.127 1304.97 216.838 1300.05 222.503C1295.14 228.168 1289.68 231 1283.68 231Z" fill="#1C1C1C"/>
<path d="M1347.41 227.853H1328.59C1328.05 227.853 1327.78 227.328 1327.78 226.279L1327.95 4.87807C1327.95 4.03883 1328.16 3.61921 1328.59 3.61921H1347.24C1347.68 3.61921 1347.89 4.03883 1347.89 4.87807L1348.05 226.279C1348.05 227.328 1347.84 227.853 1347.41 227.853Z" fill="#1C1C1C"/>
<path d="M1393.05 231C1387.05 231 1381.65 228.115 1376.84 222.345C1371.97 216.576 1368.05 208.813 1365.08 199.057C1362.16 189.3 1360.7 178.39 1360.7 166.326V64.2016C1360.7 52.4523 1362.19 41.752 1365.16 32.1008C1368.08 22.3447 1372 14.5817 1376.92 8.81199C1381.84 2.93733 1387.22 0 1393.05 0C1399.16 0 1404.68 2.83243 1409.59 8.49728C1414.51 14.267 1418.41 21.9775 1421.27 31.6287C1424.19 41.28 1425.65 52.1376 1425.65 64.2016V78.9932C1425.65 79.8324 1425.38 80.252 1424.84 80.252H1406.19C1405.76 80.252 1405.54 79.8324 1405.54 78.9932V66.7193C1405.54 58.5368 1404.35 51.7704 1401.97 46.4203C1399.59 41.0702 1396.62 38.3951 1393.05 38.3951C1389.86 38.3951 1387.03 40.9653 1384.54 46.1056C1382.05 51.2459 1380.81 57.2779 1380.81 64.2016V166.326C1380.81 173.355 1382.03 179.439 1384.46 184.58C1386.89 189.615 1389.76 192.133 1393.05 192.133C1396.62 192.133 1399.59 189.668 1401.97 184.737C1404.35 179.702 1405.54 173.565 1405.54 166.326V150.433H1393.95C1393.35 150.433 1393.05 149.909 1393.05 148.86V112.825C1393.05 111.776 1393.35 111.251 1393.95 111.251H1425C1425.43 111.251 1425.65 111.776 1425.65 112.825V166.326C1425.65 178.39 1424.19 189.3 1421.27 199.057C1418.3 208.813 1414.38 216.576 1409.51 222.345C1404.65 228.115 1399.16 231 1393.05 231Z" fill="#1C1C1C"/>
<path d="M1455.49 227.853H1438.86C1438 227.853 1437.57 227.119 1437.57 225.65L1437.41 6.13692C1437.41 4.45845 1437.84 3.61921 1438.7 3.61921H1453.7L1481.76 130.606L1480.95 6.13692C1480.95 4.45845 1481.43 3.61921 1482.41 3.61921H1498.86C1499.51 3.61921 1499.84 4.45845 1499.84 6.13692L1500 225.965C1500 227.223 1499.73 227.853 1499.19 227.853H1484.59L1455.81 109.206L1457.03 225.335C1457.03 227.014 1456.51 227.853 1455.49 227.853Z" fill="#1C1C1C"/>
</svg>
