<svg width="1489" height="278" viewBox="0 0 1489 278" fill="none" xmlns="http://www.w3.org/2000/svg">
<path d="M63.8471 221.751C63.8471 231.847 61.759 240.02 57.5829 246.27C53.4067 252.279 47.9456 255.284 41.1994 255.284H26.2616C19.5155 255.284 14.0544 252.279 9.87823 246.27C5.70207 240.02 3.61399 231.847 3.61399 221.751V34.9754H0L2.40932 1.44228H26.5026V219.948C26.5026 221.15 26.9041 221.751 27.7072 221.751H39.7539C40.557 221.751 40.9585 221.15 40.9585 219.948V2.16344H63.8471V221.751Z" fill="#C8C6C3"/>
<path d="M75.8467 253.842V34.9754H72.2327L74.642 1.44228H98.7352V253.842H75.8467Z" fill="#C8C6C3"/>
<path d="M131.658 5.04799H156.474L130.695 278H105.879L131.658 5.04799Z" fill="#C8C6C3"/>
<path d="M225.253 221.751C225.253 231.847 223.165 240.02 218.989 246.27C214.813 252.279 209.351 255.284 202.605 255.284H187.668C180.921 255.284 175.46 252.279 171.284 246.27C167.108 240.02 165.02 231.847 165.02 221.751V34.9754H161.406L163.815 1.44228H187.908V219.948C187.908 221.15 188.31 221.751 189.113 221.751H201.16C201.963 221.751 202.364 221.15 202.364 219.948V2.16344H225.253V221.751Z" fill="#C8C6C3"/>
<path d="M228.754 253.842L251.402 127.642L228.754 1.44228H252.847L265.617 89.061L278.627 1.44228H302.72L279.832 127.642L302.72 253.842H278.627L265.617 166.223L252.847 253.842H228.754Z" fill="#C8C6C3"/>
<path d="M418.215 220.309C418.215 230.405 416.127 238.578 411.951 244.828C407.775 250.837 402.314 253.842 395.568 253.842H355.573V34.9754H351.959L354.368 1.44228H395.568C402.314 1.44228 407.775 4.56723 411.951 10.8171C416.127 16.8266 418.215 24.8794 418.215 34.9754V220.309ZM394.122 34.9754H378.462V220.309H394.122C394.925 220.309 395.327 219.708 395.327 218.506V36.7782C395.327 35.5763 394.925 34.9754 394.122 34.9754Z" fill="#C8C6C3"/>
<path d="M483.674 220.309L481.746 253.842H428.982V34.9754H425.368L427.777 1.44228H483.674L481.264 34.9754H451.871V110.695H478.855L476.446 144.228H451.871V220.309H483.674Z" fill="#C8C6C3"/>
<path d="M513.751 181.728V219.948C513.751 221.15 514.152 221.751 514.955 221.751H524.593C525.396 221.751 525.797 221.15 525.797 219.948V155.045L506.764 142.425C505.318 141.704 503.31 140.502 500.74 138.82C498.17 136.897 495.841 134.132 493.753 130.527C491.826 126.921 490.862 121.993 490.862 115.743V33.5331C490.862 23.4371 492.95 15.3844 497.126 9.37485C501.303 3.12495 506.764 0 513.51 0H526.038C532.784 0 538.246 3.12495 542.422 9.37485C546.598 15.3844 548.686 23.4371 548.686 33.5331V86.8975L525.797 84.013V35.3359C525.797 34.134 525.396 33.5331 524.593 33.5331H514.955C514.152 33.5331 513.751 34.134 513.751 35.3359V110.695L532.784 123.315C534.23 124.277 536.238 125.599 538.808 127.281C541.378 128.964 543.626 131.608 545.554 135.214C547.642 138.82 548.686 143.748 548.686 149.997V221.751C548.686 231.847 546.598 240.02 542.422 246.27C538.246 252.279 532.784 255.284 526.038 255.284H513.51C506.764 255.284 501.303 252.279 497.126 246.27C492.95 240.02 490.862 231.847 490.862 221.751V181.728H513.751Z" fill="#C8C6C3"/>
<path d="M559.594 253.842V34.9754H555.98L558.389 1.44228H582.482V253.842H559.594Z" fill="#C8C6C3"/>
<path d="M654.677 220.309C654.677 230.405 652.589 238.578 648.413 244.828C644.237 250.837 638.776 253.842 632.03 253.842H614.683C607.937 253.842 602.475 250.837 598.299 244.828C594.123 238.578 592.035 230.405 592.035 220.309V34.9754C592.035 24.8794 594.123 16.8266 598.299 10.8171C602.475 4.56723 607.937 1.44228 614.683 1.44228H632.03C638.776 1.44228 644.237 4.56723 648.413 10.8171C652.589 16.8266 654.677 24.8794 654.677 34.9754V92.6667H631.789V36.7782C631.789 35.5763 631.387 34.9754 630.584 34.9754H616.128C615.325 34.9754 614.924 35.5763 614.924 36.7782V218.506C614.924 219.708 615.325 220.309 616.128 220.309H630.584C631.387 220.309 631.789 219.708 631.789 218.506V143.868H622.392L624.32 110.335H654.677V220.309Z" fill="#C8C6C3"/>
<path d="M716.04 1.44228H738.929V253.842H716.04L689.537 99.5175V253.842H666.649V34.9754H663.035L665.444 1.44228H690.742L717.485 161.896L716.04 1.44228Z" fill="#C8C6C3"/>
<path d="M854.676 138.82L846.725 201.92L863.59 253.842H841.184C840.059 250.717 838.935 247.351 837.811 243.746C833.474 250.476 827.852 253.842 820.945 253.842H814.44C807.855 253.842 802.393 250.717 798.057 244.467C793.881 237.977 791.792 229.924 791.792 220.309V160.093C791.632 154.084 792.355 148.675 793.961 143.868C795.728 138.82 798.137 134.853 801.189 131.969C799.583 126.921 797.976 85.936 796.37 81.1284C794.764 76.3208 793.961 71.1526 793.961 65.6239V34.9754C793.961 26.0813 795.728 18.2689 799.261 11.5383C802.956 4.80761 807.774 1.44228 813.717 1.44228H825.764C832.349 1.44228 837.73 4.56723 841.906 10.8171C846.083 17.067 848.251 25.1198 848.412 34.9754V86.8975H826.005V36.7782C826.005 35.5763 825.603 34.9754 824.8 34.9754H817.572C816.769 34.9754 816.368 35.5763 816.368 36.7782V73.1958L831.305 154.685L833.233 138.82H854.676ZM815.404 220.309H821.909C822.712 220.309 823.194 219.708 823.355 218.506L825.041 204.804C823.274 199.035 821.427 193.386 819.5 187.857C817.733 182.329 815.966 176.8 814.199 171.271V218.506C814.199 219.708 814.601 220.309 815.404 220.309Z" fill="#C8C6C3"/>
<path d="M964.014 110.695L961.605 144.228H937.03V253.842H914.141V34.9754H910.527L912.936 1.44228H968.833L966.423 34.9754H937.03V110.695H964.014Z" fill="#C8C6C3"/>
<path d="M974.788 34.9754L977.198 1.44228H1015.26C1022.01 1.44228 1027.47 4.56723 1031.65 10.8171C1035.82 16.8266 1037.91 24.8794 1037.91 34.9754V147.834C1037.91 153.122 1037.19 157.93 1035.74 162.257C1034.3 166.343 1032.37 169.829 1029.96 172.713L1045.38 253.842H1022.25L1008.52 181.367H1001.29V253.842H978.402V34.9754H974.788ZM1013.82 34.9754H1001.29V147.834H1013.82C1014.62 147.834 1015.02 147.233 1015.02 146.031V36.7782C1015.02 35.5763 1014.62 34.9754 1013.82 34.9754Z" fill="#C8C6C3"/>
<path d="M1110.43 221.751C1110.43 231.847 1108.34 240.02 1104.16 246.27C1099.99 252.279 1094.52 255.284 1087.78 255.284H1070.43C1063.68 255.284 1058.22 252.279 1054.05 246.27C1049.87 240.02 1047.78 231.847 1047.78 221.751V33.5331C1047.78 23.4371 1049.87 15.3844 1054.05 9.37485C1058.22 3.12495 1063.68 0 1070.43 0H1087.78C1094.52 0 1099.99 3.12495 1104.16 9.37485C1108.34 15.3844 1110.43 23.4371 1110.43 33.5331V221.751ZM1071.88 33.5331C1071.07 33.5331 1070.67 34.134 1070.67 35.3359V219.948C1070.67 221.15 1071.07 221.751 1071.88 221.751H1086.33C1087.14 221.751 1087.54 221.15 1087.54 219.948V35.3359C1087.54 34.134 1087.14 33.5331 1086.33 33.5331H1071.88Z" fill="#C8C6C3"/>
<path d="M1170.61 1.44228H1193.5V253.842H1170.61L1144.11 99.5175V253.842H1121.22V34.9754H1117.61L1120.02 1.44228H1145.31L1172.06 161.896L1170.61 1.44228Z" fill="#C8C6C3"/>
<path d="M1201.9 34.9754V1.44228H1268.15V34.9754H1246.47V253.842H1223.58V34.9754H1201.9Z" fill="#C8C6C3"/>
<path d="M1332.58 220.309L1330.66 253.842H1277.89V34.9754H1274.28L1276.69 1.44228H1332.58L1330.17 34.9754H1300.78V110.695H1327.77L1325.36 144.228H1300.78V220.309H1332.58Z" fill="#C8C6C3"/>
<path d="M1392.72 1.44228H1415.61V253.842H1392.72L1366.22 99.5175V253.842H1343.33V34.9754H1339.72L1342.13 1.44228H1367.42L1394.17 161.896L1392.72 1.44228Z" fill="#C8C6C3"/>
<path d="M1489 220.309C1489 230.405 1486.91 238.578 1482.74 244.828C1478.56 250.837 1473.1 253.842 1466.35 253.842H1426.36V34.9754H1422.74L1425.15 1.44228H1466.35C1473.1 1.44228 1478.56 4.56723 1482.74 10.8171C1486.91 16.8266 1489 24.8794 1489 34.9754V220.309ZM1464.91 34.9754H1449.25V220.309H1464.91C1465.71 220.309 1466.11 219.708 1466.11 218.506V36.7782C1466.11 35.5763 1465.71 34.9754 1464.91 34.9754Z" fill="#C8C6C3"/>
</svg>
